<?xml version="1.0" encoding="UTF-8" standalone="no"?>
<!DOCTYPE svg PUBLIC "-//W3C//DTD SVG 1.1//EN" "http://www.w3.org/Graphics/SVG/1.1/DTD/svg11.dtd">
<svg width="100%" height="100%" viewBox="0 0 617 101" version="1.1" xmlns="http://www.w3.org/2000/svg" xmlns:xlink="http://www.w3.org/1999/xlink" xml:space="preserve" xmlns:serif="http://www.serif.com/" style="fill-rule:evenodd;clip-rule:evenodd;stroke-linejoin:round;stroke-miterlimit:2;">
    <g transform="matrix(1,0,0,1,-91.9659,-352.347)">
        <g transform="matrix(1,0,0,1,269.786,428.149)">
            <path d="M0,-45.141C3.492,-42.008 5.239,-37.504 5.239,-31.628C5.239,-29.409 5.009,-27.157 4.553,-24.871L-1.322,4.701L-23.453,4.701L-18.067,-22.228C-17.807,-23.795 -17.675,-24.871 -17.675,-25.459C-17.675,-29.311 -19.536,-31.237 -23.257,-31.237C-28.48,-31.237 -31.776,-27.842 -33.147,-21.053L-38.337,4.701L-60.467,4.701L-49.793,-48.863L-28.936,-48.863L-30.013,-43.477C-27.729,-45.631 -25.2,-47.231 -22.424,-48.276C-19.65,-49.319 -16.828,-49.842 -13.954,-49.842C-8.145,-49.842 -3.493,-48.276 0,-45.141" style="fill:white;fill-rule:nonzero;"/>
        </g>
        <g transform="matrix(1,0,0,1,293.042,413.314)">
            <path d="M0,-41.323C-2.286,-43.314 -3.427,-45.81 -3.427,-48.814C-3.427,-52.273 -2.123,-55.145 0.489,-57.431C3.1,-59.716 6.495,-60.859 10.673,-60.859C14.458,-60.859 17.494,-59.928 19.78,-58.068C22.064,-56.207 23.208,-53.774 23.208,-50.772C23.208,-47.052 21.917,-44.048 19.339,-41.763C16.76,-39.478 13.35,-38.336 9.106,-38.336C5.32,-38.336 2.284,-39.331 0,-41.323M-4.309,-34.028L17.724,-34.028L7.05,19.536L-14.982,19.536L-4.309,-34.028Z" style="fill:white;fill-rule:nonzero;"/>
        </g>
        <g transform="matrix(1,0,0,1,343.961,409.838)">
            <path d="M0,-27.614L11.555,-27.614L8.323,-11.457L-2.546,-11.457L-9.499,23.012L-31.629,23.012L-24.774,-11.457L-32.119,-11.457L-28.887,-27.614L-21.543,-27.614L-21.249,-28.886C-19.944,-35.546 -16.974,-40.833 -12.338,-44.75C-7.704,-48.667 -1.601,-50.626 5.973,-50.626C11.521,-50.626 16.059,-49.744 19.584,-47.982L11.163,-32.608C9.596,-33.456 7.932,-33.881 6.169,-33.881C4.407,-33.881 3.051,-33.391 2.105,-32.412C1.158,-31.433 0.456,-29.866 0,-27.712L0,-27.614Z" style="fill:white;fill-rule:nonzero;"/>
        </g>
        <g transform="matrix(1,0,0,1,380.388,389.273)">
            <path d="M0,22.524C-0.132,23.307 -0.196,23.831 -0.196,24.09C-0.196,26.572 1.175,27.811 3.917,27.811C5.352,27.811 6.984,27.387 8.813,26.538L11.359,41.422C7.572,43.512 2.742,44.555 -3.134,44.555C-9.205,44.555 -13.988,43.104 -17.479,40.198C-20.973,37.295 -22.718,33.197 -22.718,27.909C-22.718,26.212 -22.522,24.45 -22.131,22.622L-19.389,9.108L-26.831,9.108L-23.6,-7.049L-16.255,-7.049L-13.22,-22.031L8.911,-22.031L5.875,-7.049L16.842,-7.049L13.611,9.108L2.644,9.108L0,22.524Z" style="fill:white;fill-rule:nonzero;"/>
        </g>
        <g transform="matrix(1,0,0,1,466.069,452.826)">
            <path d="M0,-73.54L-32.902,-18.899C-35.84,-14.004 -38.714,-10.201 -41.52,-7.491C-44.327,-4.783 -47.313,-2.857 -50.479,-1.714C-53.646,-0.572 -57.351,0 -61.594,0C-64.531,0 -67.453,-0.426 -70.357,-1.273C-73.261,-2.123 -75.596,-3.232 -77.358,-4.602L-67.762,-19.977C-65.282,-18.084 -62.606,-17.137 -59.733,-17.137C-57.579,-17.137 -55.752,-17.889 -54.249,-19.389L-66,-73.54L-43.968,-73.54L-38.484,-44.751L-21.642,-73.54L0,-73.54Z" style="fill:white;fill-rule:nonzero;"/>
        </g>
        <g transform="matrix(1,0,0,1,519.731,420.218)">
            <path d="M0,-41.716L-15.668,-28.202C-11.555,-26.896 -8.357,-24.775 -6.071,-21.837C-3.787,-18.9 -2.645,-15.439 -2.645,-11.457C-2.645,-6.625 -4.162,-2.253 -7.197,1.665C-10.233,5.581 -14.395,8.651 -19.683,10.869C-24.971,13.088 -30.88,14.198 -37.406,14.198C-42.435,14.198 -47.216,13.61 -51.752,12.436C-56.29,11.261 -60.32,9.466 -63.846,7.05L-53.368,-9.009C-50.758,-7.376 -47.918,-6.136 -44.849,-5.288C-41.781,-4.439 -38.777,-4.015 -35.84,-4.015C-32.643,-4.015 -30.194,-4.521 -28.496,-5.532C-26.799,-6.544 -25.95,-7.996 -25.95,-9.89C-25.95,-12.632 -28.235,-14.003 -32.805,-14.003L-42.303,-14.003L-39.463,-28.202L-27.517,-38.484L-51.801,-38.484L-48.276,-55.914L2.84,-55.914L0,-41.716Z" style="fill:white;fill-rule:nonzero;"/>
        </g>
        <g transform="matrix(1,0,0,1,558.263,380.853)">
            <path d="M0,35.448C1.469,34.012 2.203,32.118 2.203,29.768C2.203,27.876 1.631,26.375 0.489,25.264C-0.653,24.155 -2.237,23.599 -4.26,23.599C-6.48,23.599 -8.309,24.302 -9.744,25.705C-11.181,27.109 -11.897,28.953 -11.897,31.237C-11.897,33.132 -11.327,34.665 -10.185,35.84C-9.043,37.014 -7.459,37.602 -5.436,37.602C-3.281,37.602 -1.469,36.885 0,35.448M13.855,9.939C17.119,11.473 19.763,13.743 21.787,16.745C23.811,19.749 24.823,23.305 24.823,27.419C24.823,32.641 23.533,37.227 20.955,41.177C18.375,45.128 14.801,48.178 10.232,50.333C5.662,52.487 0.473,53.563 -5.337,53.563C-11.148,53.563 -16.256,52.502 -20.662,50.382C-25.068,48.261 -28.513,45.128 -30.993,40.981C-33.475,36.836 -34.714,31.76 -34.714,25.754C-34.714,18.639 -33.099,11.719 -29.867,4.994C-26.636,-1.729 -21.707,-7.261 -15.08,-11.604C-8.455,-15.945 -0.279,-18.115 9.449,-18.115C13.758,-18.115 17.837,-17.641 21.689,-16.696C25.541,-15.749 28.642,-14.427 30.992,-12.73L20.515,3.134C17.249,0.915 13.137,-0.197 8.176,-0.197C-0.115,-0.197 -5.763,3.591 -8.765,11.163C-5.436,8.813 -1.388,7.637 3.378,7.637C7.099,7.637 10.591,8.406 13.855,9.939" style="fill:white;fill-rule:nonzero;"/>
        </g>
        <g transform="matrix(1,0,0,1,623.82,385.553)">
            <path d="M0,26.048C1.763,23.176 3.085,19.733 3.966,15.717C4.847,11.702 5.288,7.998 5.288,4.603C5.288,-1.337 3.361,-4.308 -0.489,-4.308C-2.972,-4.308 -5.092,-2.871 -6.854,0C-8.617,2.873 -9.939,6.317 -10.82,10.331C-11.702,14.346 -12.143,18.052 -12.143,21.445C-12.143,27.387 -10.218,30.357 -6.365,30.357C-3.885,30.357 -1.763,28.921 0,26.048M-22.718,45.682C-26.701,43.561 -29.785,40.491 -31.972,36.477C-34.16,32.461 -35.252,27.649 -35.252,22.033C-35.252,13.547 -33.653,5.893 -30.454,-0.93C-27.256,-7.751 -22.833,-13.104 -17.186,-16.989C-11.54,-20.872 -5.19,-22.815 1.86,-22.815C7.213,-22.815 11.881,-21.754 15.863,-19.633C19.845,-17.511 22.929,-14.443 25.117,-10.428C27.304,-6.414 28.397,-1.598 28.397,4.016C28.397,12.502 26.797,20.157 23.6,26.979C20.4,33.801 15.977,39.154 10.331,43.037C4.684,46.922 -1.665,48.863 -8.715,48.863C-14.068,48.863 -18.737,47.802 -22.718,45.682" style="fill:white;fill-rule:nonzero;"/>
        </g>
        <g transform="matrix(1,0,0,1,661.226,379.677)">
            <path d="M0,52.781C-4.309,51.868 -7.671,50.692 -10.086,49.256L-2.447,34.176C0.099,35.743 3.052,36.951 6.414,37.799C9.775,38.648 13.024,39.072 16.157,39.072C20.53,39.072 22.719,38.224 22.719,36.526C22.719,35.808 22.146,35.27 21.005,34.91C19.862,34.552 18.05,34.21 15.57,33.882C11.718,33.294 8.454,32.594 5.778,31.776C3.101,30.962 0.75,29.524 -1.272,27.468C-3.297,25.411 -4.309,22.556 -4.309,18.899C-4.309,12.307 -1.502,7.28 4.113,3.819C9.727,0.36 16.973,-1.37 25.852,-1.37C29.769,-1.37 33.539,-1.028 37.162,-0.342C40.785,0.343 44,1.34 46.808,2.645L39.169,17.725C34.533,15.049 29.214,13.71 23.208,13.71C20.857,13.71 19.145,13.971 18.067,14.493C16.99,15.016 16.451,15.635 16.451,16.354C16.451,17.073 17.005,17.612 18.116,17.969C19.226,18.329 21.118,18.737 23.796,19.194C27.581,19.781 30.797,20.483 33.441,21.3C36.085,22.116 38.401,23.552 40.394,25.608C42.384,27.664 43.38,30.488 43.38,34.078C43.38,38.386 42.059,42.058 39.414,45.094C36.771,48.13 33.18,50.399 28.643,51.899C24.104,53.401 19.029,54.151 13.416,54.151C8.78,54.151 4.309,53.694 0,52.781" style="fill:white;fill-rule:nonzero;"/>
        </g>
        <g transform="matrix(-0.516071,-0.856546,-0.856546,0.516071,117.133,369.108)">
            <path d="M-41.917,16.746L5.282,16.746C1.446,25.023 -4.806,32.278 -13.193,37.331C-17.359,39.841 -21.764,41.632 -26.257,42.738L-41.917,16.746Z" style="fill:white;fill-rule:nonzero;"/>
        </g>
        <g transform="matrix(1,0,0,1,134.657,353.577)">
            <path d="M0,26.03L47.48,26.03C41.382,13.062 29.569,3.298 15.301,0L0,26.03Z" style="fill:white;fill-rule:nonzero;"/>
        </g>
        <g transform="matrix(0.506703,-0.862121,-0.862121,-0.506703,139.677,387.761)">
            <path d="M-15.869,14.177L32.477,14.177C31.836,15.565 31.126,16.931 30.335,18.278C23.185,30.442 11.403,38.223 -1.467,40.724L-15.869,14.177Z" style="fill:white;fill-rule:nonzero;"/>
        </g>
        <g transform="matrix(0.497329,-0.867562,-0.867562,-0.497329,135.813,431.284)">
            <path d="M-15.589,-1.409L14.538,-1.409L-9.328,40.223C-18.075,27.953 -20.624,11.932 -15.589,-2.696L-15.589,-1.409Z" style="fill:white;fill-rule:nonzero;"/>
        </g>
        <g transform="matrix(0.499298,0.86643,0.86643,-0.499298,180.215,381.624)">
            <path d="M-9.838,-24.486L38.071,-24.486C34.11,-15.948 27.591,-8.506 18.836,-3.461C14.504,-0.964 9.937,0.762 5.292,1.769L-9.838,-24.486Z" style="fill:white;fill-rule:nonzero;"/>
        </g>
        <g transform="matrix(-0.497438,0.8675,0.8675,0.497438,170.614,440.251)">
            <path d="M-24.571,-27.52L23.335,-27.52C22.757,-26.271 22.133,-25.03 21.436,-23.815C14.578,-11.854 3.25,-4.023 -9.246,-1.208L-24.571,-27.52Z" style="fill:white;fill-rule:nonzero;"/>
        </g>
    </g>
</svg>
